<svg xmlns="http://www.w3.org/2000/svg" xmlns:xlink="http://www.w3.org/1999/xlink" width="70" zoomAndPan="magnify" viewBox="0 0 52.5 52.499999" height="70" preserveAspectRatio="xMidYMid meet" version="1.0"><defs><clipPath id="f3fd0b6995"><path d="M 18.359375 20 L 30 20 L 30 45 L 18.359375 45 Z M 18.359375 20 " clip-rule="nonzero"/></clipPath><clipPath id="b3d25749c0"><path d="M 25 16.308594 L 50.515625 16.308594 L 50.515625 52.003906 L 25 52.003906 Z M 25 16.308594 " clip-rule="nonzero"/></clipPath><clipPath id="351064b292"><path d="M 5 0 L 34.972656 0 L 34.972656 43 L 5 43 Z M 5 0 " clip-rule="nonzero"/></clipPath><clipPath id="68f3a09388"><path d="M 2.023438 21.8125 L 22.367188 21.8125 L 22.367188 41.5 L 2.023438 41.5 Z M 2.023438 21.8125 " clip-rule="nonzero"/></clipPath><clipPath id="b82d5c12dd"><path d="M 23.515625 18.925781 L 42.546875 18.925781 L 42.546875 39.269531 L 23.515625 39.269531 Z M 23.515625 18.925781 " clip-rule="nonzero"/></clipPath></defs><g clip-path="url(#f3fd0b6995)"><path fill="#00bf63" d="M 29.046875 43.875 C 29.011719 43.15625 28.945312 42.433594 28.726562 41.742188 C 28.519531 41.039062 28.214844 40.375 27.839844 39.761719 C 27.707031 39.542969 27.566406 39.335938 27.425781 39.128906 C 27.421875 39.128906 27.421875 39.125 27.425781 39.121094 C 28.640625 37.238281 29.289062 33.996094 29.363281 33.609375 C 29.367188 33.601562 29.355469 33.597656 29.351562 33.605469 C 28.707031 34.765625 27.894531 34.617188 27.820312 34.601562 C 27.816406 34.601562 27.8125 34.597656 27.816406 34.59375 C 28.941406 31.226562 26.792969 27.410156 26.792969 27.410156 C 25.632812 25.191406 25.671875 22.824219 26.910156 20.246094 C 26.914062 20.242188 26.910156 20.238281 26.90625 20.238281 C 22.953125 20.5625 21.984375 25.070312 21.9375 25.292969 C 21.9375 25.296875 21.933594 25.296875 21.929688 25.292969 C 21.59375 25.070312 21.535156 24.054688 21.527344 23.898438 C 21.527344 23.894531 21.519531 23.890625 21.515625 23.898438 C 18.378906 28.734375 20.347656 34.671875 20.445312 34.878906 C 20.449219 34.882812 20.445312 34.882812 20.441406 34.882812 C 19.6875 35.132812 18.894531 34.335938 18.722656 34.152344 C 18.71875 34.144531 18.710938 34.152344 18.710938 34.160156 C 22.109375 40.835938 25.730469 39.660156 26.210938 39.546875 C 26.214844 39.546875 26.214844 39.542969 26.210938 39.539062 C 21.597656 34.777344 23.304688 28.679688 23.527344 27.953125 C 23.53125 27.945312 23.542969 27.949219 23.539062 27.957031 C 23.4375 28.71875 23.53125 29.96875 23.621094 30.851562 C 23.664062 31.410156 23.730469 31.96875 23.820312 32.519531 C 23.933594 33.210938 24.082031 33.894531 24.265625 34.574219 C 24.453125 35.257812 24.738281 35.914062 25.074219 36.539062 C 25.753906 37.789062 26.664062 38.875 27.3125 40.0625 C 27.636719 40.65625 27.882812 41.28125 28.042969 41.921875 C 28.210938 42.566406 28.234375 43.234375 28.238281 43.898438 L 28.238281 43.925781 C 28.238281 43.929688 28.238281 43.9375 28.238281 43.941406 C 28.25 44.175781 28.460938 44.355469 28.699219 44.324219 C 28.914062 44.292969 29.058594 44.085938 29.046875 43.875 " fill-opacity="1" fill-rule="nonzero"/></g><path fill="#00bf63" d="M 37.785156 32.472656 C 37.789062 32.472656 37.785156 32.476562 37.785156 32.476562 C 36.597656 32.660156 35.761719 33.230469 35.246094 34.191406 C 35.246094 34.191406 34.394531 35.902344 32.960938 36.320312 C 32.957031 36.324219 32.957031 36.324219 32.957031 36.324219 C 32.96875 36.355469 33.101562 36.683594 33.65625 36.632812 C 33.660156 36.632812 33.660156 36.636719 33.65625 36.636719 C 33.535156 36.691406 32.703125 37.058594 31.894531 37.21875 C 31.722656 37.253906 31.554688 37.277344 31.394531 37.285156 C 31.390625 37.289062 31.386719 37.285156 31.382812 37.289062 C 31.261719 37.285156 31.140625 37.273438 31.035156 37.257812 C 31.246094 36.792969 31.410156 36.285156 31.652344 35.8125 C 31.796875 35.539062 31.960938 35.273438 32.160156 35.039062 C 32.355469 34.804688 32.5625 34.585938 32.777344 34.375 C 32.953125 34.207031 33.132812 34.046875 33.316406 33.894531 C 33.605469 33.644531 34.023438 33.304688 34.3125 33.152344 C 34.316406 33.152344 34.316406 33.148438 34.3125 33.148438 C 34.007812 33.246094 31.480469 34.128906 30.859375 36.957031 C 30.859375 36.960938 30.859375 36.960938 30.859375 36.957031 C 30.707031 36.8125 29.472656 35.800781 31.039062 32.9375 C 31.042969 32.933594 31.046875 32.9375 31.046875 32.941406 C 31.019531 33.046875 30.921875 33.527344 31.179688 33.738281 C 31.179688 33.738281 31.183594 33.738281 31.183594 33.738281 C 31.234375 33.652344 32.867188 31.488281 35.277344 31.429688 C 35.277344 31.429688 35.28125 31.433594 35.277344 31.433594 C 35.226562 31.472656 34.882812 31.746094 34.882812 31.921875 C 34.878906 31.921875 34.882812 31.925781 34.882812 31.921875 C 34.972656 31.886719 36.773438 31.128906 37.785156 32.472656 " fill-opacity="1" fill-rule="nonzero"/><g clip-path="url(#b3d25749c0)"><path fill="#00bf63" d="M 37.609375 43.121094 C 37.082031 43.222656 36.445312 43.269531 35.699219 43.269531 C 34.492188 43.269531 33.632812 43.214844 33.128906 43.105469 C 32.621094 43 32.304688 42.832031 32.183594 42.605469 C 32.058594 42.382812 32 42.003906 32 41.476562 C 32 39.964844 32.652344 39.203125 33.964844 39.203125 C 35.019531 39.203125 35.941406 39.726562 36.730469 40.769531 C 37.523438 41.8125 37.917969 42.503906 37.917969 42.847656 C 37.917969 43.003906 37.816406 43.09375 37.609375 43.121094 Z M 50.355469 49.550781 C 50.265625 49.410156 50.171875 49.339844 50.066406 49.339844 C 49.835938 49.339844 49.421875 49.480469 48.828125 49.765625 C 48.234375 50.046875 47.746094 50.1875 47.359375 50.1875 C 46.429688 50.1875 45.589844 49.878906 44.84375 49.261719 C 44.097656 48.648438 43.421875 47.714844 42.820312 46.46875 C 42.222656 45.222656 41.921875 44.511719 41.921875 44.328125 C 41.921875 44.125 42.109375 43.933594 42.484375 43.753906 C 44.585938 42.839844 46.300781 41.164062 47.628906 38.71875 C 48.957031 36.269531 49.621094 33.6875 49.621094 30.964844 C 49.621094 26.550781 47.984375 22.769531 44.707031 19.621094 C 42.386719 17.414062 39.125 16.3125 34.921875 16.3125 C 31.605469 16.3125 28.847656 17.042969 26.640625 18.507812 C 26.082031 18.878906 25.5625 19.277344 25.082031 19.703125 C 25.605469 19.484375 26.1875 19.335938 26.828125 19.285156 C 27.167969 19.257812 27.507812 19.417969 27.699219 19.699219 C 27.894531 19.984375 27.925781 20.355469 27.773438 20.664062 C 27.589844 21.050781 27.433594 21.429688 27.308594 21.800781 C 27.371094 21.726562 27.433594 21.648438 27.496094 21.574219 C 29.5 19.261719 31.972656 18.101562 34.921875 18.101562 C 37.980469 18.101562 40.515625 19.292969 42.515625 21.667969 C 44.519531 24.046875 45.519531 27.328125 45.519531 31.515625 C 45.519531 33.648438 45.246094 35.5 44.691406 37.074219 C 44.136719 38.648438 43.460938 39.835938 42.660156 40.628906 C 41.863281 41.425781 41.351562 41.824219 41.128906 41.824219 C 41.039062 41.824219 40.960938 41.753906 40.898438 41.617188 C 40.1875 40.285156 39.300781 39.242188 38.238281 38.496094 C 37.171875 37.75 35.996094 37.375 34.707031 37.375 C 33.441406 37.375 32.414062 37.773438 31.621094 38.570312 C 30.828125 39.371094 30.433594 40.371094 30.433594 41.570312 L 30.433594 42.085938 L 30.449219 42.277344 L 30.375 42.394531 C 30.300781 42.394531 30.117188 42.320312 29.824219 42.171875 C 29.933594 42.734375 29.976562 43.292969 30.003906 43.824219 C 30.003906 43.847656 30.003906 43.871094 30.003906 43.898438 C 30.003906 44.113281 29.957031 44.320312 29.867188 44.503906 C 31.5 45.042969 33.300781 45.3125 35.265625 45.3125 C 36.464844 45.3125 37.550781 45.21875 38.519531 45.023438 L 38.652344 45.023438 C 38.78125 45.023438 38.878906 45.109375 38.941406 45.273438 C 39.523438 46.789062 40.125 48.0625 40.75 49.089844 C 41.375 50.117188 42.191406 50.925781 43.203125 51.519531 C 44.210938 52.109375 45.167969 52.40625 46.070312 52.40625 C 47.113281 52.40625 48.109375 52.15625 49.0625 51.664062 C 50.015625 51.167969 50.492188 50.601562 50.492188 49.957031 C 50.492188 49.828125 50.449219 49.695312 50.355469 49.550781 " fill-opacity="1" fill-rule="nonzero"/></g><path fill="#ff914d" d="M 29.507812 18.808594 L 29.480469 18.777344 L 29.472656 18.761719 L 29.523438 18.828125 Z M 29.507812 18.808594 " fill-opacity="1" fill-rule="nonzero"/><path fill="#ff914d" d="M 27.050781 37.304688 L 27.085938 37.277344 L 27.101562 37.265625 L 27.035156 37.316406 Z M 27.050781 37.304688 " fill-opacity="1" fill-rule="nonzero"/><g clip-path="url(#351064b292)"><path fill="#ff914d" d="M 34.027344 22.628906 C 33.597656 21.117188 32.953125 19.703125 32.09375 18.382812 C 31.230469 17.066406 30.191406 15.90625 28.976562 14.902344 C 27.980469 14.085938 26.898438 13.402344 25.734375 12.847656 C 28.828125 11.300781 29.25 8.492188 29.347656 7.355469 C 29.429688 6.199219 29.230469 5.09375 28.742188 4.039062 C 28.289062 3.039062 27.625 2.203125 26.761719 1.523438 C 25.894531 0.847656 24.917969 0.40625 23.835938 0.203125 C 22.695312 0.00390625 19.085938 0.0703125 18.449219 0.0703125 L 18.449219 0.046875 L 15.449219 0.046875 L 15.609375 2.226562 L 15.609375 17.578125 C 9.765625 18.320312 4.832031 23.585938 5.214844 29.929688 C 6.019531 43.320312 19.648438 42.519531 22.398438 41.964844 C 29.835938 40.433594 32.574219 35.117188 33.683594 32.101562 C 34.234375 30.578125 34.539062 29.007812 34.597656 27.390625 C 34.65625 25.773438 34.46875 24.1875 34.027344 22.628906 Z M 26.121094 9.527344 Z M 25.207031 3.300781 Z M 18.449219 2.433594 L 22.117188 2.433594 C 22.460938 2.433594 22.800781 2.433594 23.136719 2.46875 C 23.535156 2.535156 23.921875 2.636719 24.300781 2.78125 C 24.570312 2.90625 24.828125 3.046875 25.078125 3.210938 C 25.148438 3.257812 25.214844 3.308594 25.28125 3.355469 L 25.292969 3.367188 C 25.433594 3.480469 25.566406 3.601562 25.695312 3.730469 C 25.824219 3.855469 25.929688 3.976562 26.042969 4.105469 L 26.074219 4.144531 C 26.113281 4.203125 26.15625 4.261719 26.199219 4.320312 C 26.371094 4.574219 26.519531 4.839844 26.648438 5.117188 C 26.792969 5.488281 26.898438 5.871094 26.960938 6.261719 C 27.003906 6.664062 27.003906 7.0625 26.960938 7.464844 C 26.898438 7.855469 26.792969 8.238281 26.648438 8.609375 C 26.523438 8.878906 26.378906 9.136719 26.210938 9.382812 C 26.167969 9.453125 26.117188 9.519531 26.070312 9.589844 C 26.066406 9.589844 26.0625 9.59375 26.058594 9.597656 C 25.945312 9.738281 25.824219 9.871094 25.695312 9.996094 C 25.566406 10.125 25.445312 10.234375 25.3125 10.34375 C 25.300781 10.355469 25.289062 10.363281 25.277344 10.371094 L 25.097656 10.5 C 24.84375 10.667969 24.578125 10.816406 24.296875 10.945312 C 23.921875 11.089844 23.539062 11.195312 23.140625 11.257812 C 22.941406 11.28125 22.742188 11.292969 22.539062 11.292969 L 18.449219 11.292969 Z M 32.121094 28.601562 C 32.074219 32.738281 27.253906 41.328125 17.015625 40.019531 C 11.378906 39.472656 7.574219 35.492188 7.574219 29.929688 C 7.574219 24.878906 11.0625 20.6875 15.597656 19.953125 L 15.597656 29.566406 L 15.4375 30.542969 L 18.4375 30.542969 L 18.4375 19.875 C 19.695312 19.980469 21.558594 20.359375 22.871094 21.601562 C 23.066406 21.785156 23.25 22.144531 23.417969 22.371094 C 23.445312 22.6875 24.855469 20.867188 25.042969 20.464844 C 23.292969 18.425781 20.566406 17.65625 18.4375 17.503906 L 18.4375 13.65625 L 18.964844 13.65625 C 19.558594 13.65625 20.148438 13.691406 20.738281 13.765625 C 21.902344 13.933594 23.027344 14.238281 24.113281 14.675781 C 24.742188 14.949219 25.34375 15.261719 25.925781 15.621094 C 26.226562 15.800781 26.523438 15.996094 26.8125 16.207031 L 27.019531 16.363281 L 27.054688 16.386719 C 27.1875 16.492188 27.320312 16.597656 27.449219 16.703125 C 28.003906 17.167969 28.519531 17.671875 28.996094 18.214844 C 29.113281 18.34375 29.222656 18.472656 29.332031 18.605469 L 29.460938 18.765625 L 29.402344 18.6875 L 29.472656 18.777344 C 29.515625 18.828125 29.578125 18.917969 29.507812 18.824219 C 29.714844 19.105469 29.917969 19.394531 30.113281 19.695312 C 30.527344 20.34375 30.890625 21.019531 31.195312 21.722656 C 31.636719 22.800781 31.941406 23.914062 32.113281 25.066406 C 32.269531 26.242188 32.144531 27.421875 32.121094 28.601562 Z M 32.121094 28.601562 " fill-opacity="1" fill-rule="nonzero"/></g><g clip-path="url(#68f3a09388)"><path fill="#004aad" d="M 22.25 41.152344 C 21.40625 40.695312 20.515625 40.238281 19.667969 39.808594 L 20.851562 35.566406 C 21.582031 35.824219 22.117188 36.003906 22.121094 36.003906 C 22.136719 36.011719 22.15625 36.011719 22.171875 36.011719 C 22.242188 36.011719 22.304688 35.972656 22.324219 35.90625 C 22.355469 35.824219 22.308594 35.734375 22.226562 35.703125 C 22.21875 35.703125 21.675781 35.519531 20.9375 35.257812 L 20.976562 35.121094 C 20.980469 35.101562 20.980469 35.082031 20.984375 35.0625 C 20.984375 35.058594 20.988281 35.058594 20.988281 35.054688 C 20.992188 35.042969 20.992188 35.035156 20.992188 35.023438 C 21.042969 34.652344 20.8125 34.289062 20.433594 34.1875 C 20.238281 34.132812 20.027344 34.160156 19.851562 34.257812 C 19.835938 34.265625 19.824219 34.277344 19.808594 34.285156 C 19.738281 34.105469 19.585938 33.957031 19.382812 33.902344 C 19.039062 33.808594 18.683594 34.007812 18.589844 34.34375 L 18.582031 34.382812 C 17.160156 33.820312 16.6875 33.542969 16.542969 33.410156 C 15.925781 32.832031 15.671875 31.808594 15.46875 30.34375 C 15.398438 29.820312 15.367188 29.425781 15.335938 29.007812 C 15.292969 28.402344 15.246094 27.777344 15.058594 26.75 C 14.839844 25.566406 14.066406 23.011719 13.804688 22.417969 C 13.65625 22.082031 13.320312 21.867188 12.953125 21.867188 C 12.632812 21.867188 12.355469 22.027344 12.1875 22.265625 C 12.019531 22.027344 11.738281 21.867188 11.421875 21.867188 C 11.050781 21.867188 10.71875 22.082031 10.570312 22.417969 C 10.304688 23.011719 9.535156 25.566406 9.316406 26.75 C 9.125 27.777344 9.078125 28.402344 9.035156 29.007812 C 9.003906 29.425781 8.976562 29.820312 8.902344 30.34375 C 8.710938 31.726562 8.476562 32.71875 7.929688 33.308594 L 7.800781 33.121094 C 7.605469 32.828125 7.199219 32.746094 6.898438 32.941406 C 6.753906 33.039062 6.65625 33.183594 6.621094 33.351562 C 6.621094 33.355469 6.621094 33.363281 6.621094 33.371094 C 6.605469 33.367188 6.59375 33.359375 6.578125 33.359375 C 6.425781 33.328125 6.265625 33.355469 6.136719 33.441406 C 5.871094 33.617188 5.796875 33.960938 5.960938 34.226562 C 5.960938 34.226562 5.960938 34.230469 5.964844 34.230469 C 5.964844 34.238281 5.96875 34.242188 5.972656 34.246094 L 6.007812 34.296875 C 4.339844 34.96875 2.171875 35.695312 2.148438 35.703125 C 2.0625 35.734375 2.019531 35.824219 2.046875 35.90625 C 2.070312 35.972656 2.132812 36.011719 2.199219 36.011719 C 2.21875 36.011719 2.234375 36.011719 2.253906 36.003906 C 2.273438 35.996094 4.503906 35.25 6.1875 34.566406 L 8.421875 37.875 C 7.421875 38.429688 6.316406 38.988281 5.152344 39.582031 C 4.144531 40.09375 3.097656 40.625 2.121094 41.152344 C 2.042969 41.195312 2.015625 41.292969 2.058594 41.367188 C 2.089844 41.421875 2.144531 41.449219 2.199219 41.449219 C 2.226562 41.449219 2.253906 41.445312 2.277344 41.429688 C 3.25 40.902344 4.292969 40.375 5.300781 39.863281 C 6.476562 39.265625 7.589844 38.699219 8.601562 38.136719 L 8.652344 38.210938 C 8.738281 38.339844 8.871094 38.429688 9.023438 38.460938 C 9.0625 38.46875 9.101562 38.472656 9.140625 38.472656 C 9.257812 38.472656 9.371094 38.4375 9.46875 38.375 C 9.597656 38.289062 9.6875 38.15625 9.71875 38.007812 C 9.722656 37.992188 9.722656 37.976562 9.722656 37.964844 C 9.730469 37.964844 9.738281 37.96875 9.742188 37.96875 C 9.785156 37.976562 9.828125 37.980469 9.875 37.980469 C 10 37.980469 10.125 37.945312 10.230469 37.875 C 10.375 37.78125 10.476562 37.636719 10.507812 37.46875 C 10.539062 37.316406 10.511719 37.167969 10.4375 37.035156 C 11.019531 36.640625 11.464844 36.289062 11.785156 35.957031 C 11.957031 35.777344 12.09375 35.570312 12.1875 35.351562 C 12.28125 35.570312 12.414062 35.777344 12.585938 35.957031 C 13.515625 36.917969 15.394531 37.964844 17.304688 38.957031 L 17.183594 39.398438 C 17.136719 39.5625 17.160156 39.730469 17.246094 39.878906 C 17.328125 40.027344 17.46875 40.132812 17.632812 40.175781 C 17.691406 40.191406 17.746094 40.199219 17.804688 40.199219 C 17.949219 40.199219 18.089844 40.148438 18.203125 40.0625 C 18.296875 40.25 18.464844 40.402344 18.6875 40.460938 C 18.753906 40.480469 18.824219 40.488281 18.890625 40.488281 C 19.023438 40.488281 19.15625 40.453125 19.273438 40.386719 C 19.394531 40.320312 19.488281 40.222656 19.554688 40.109375 C 20.390625 40.53125 21.265625 40.980469 22.097656 41.429688 C 22.121094 41.445312 22.148438 41.449219 22.171875 41.449219 C 22.230469 41.449219 22.285156 41.421875 22.316406 41.367188 C 22.355469 41.292969 22.328125 41.195312 22.25 41.152344 Z M 19.648438 38.675781 C 19.46875 38.589844 19.371094 38.386719 19.425781 38.1875 C 19.480469 37.992188 19.671875 37.867188 19.871094 37.882812 Z M 20.269531 35.460938 C 20.320312 35.289062 20.464844 35.171875 20.632812 35.152344 L 20.421875 35.902344 C 20.289062 35.800781 20.222656 35.628906 20.269531 35.460938 Z M 18.445312 39.730469 C 18.445312 39.691406 18.449219 39.652344 18.457031 39.613281 L 18.648438 38.933594 C 18.726562 38.972656 18.792969 39.03125 18.835938 39.105469 C 18.894531 39.203125 18.910156 39.316406 18.878906 39.425781 C 18.847656 39.53125 18.777344 39.621094 18.679688 39.679688 C 18.605469 39.71875 18.527344 39.734375 18.445312 39.730469 Z M 19.394531 36.246094 C 19.582031 36.332031 19.683594 36.535156 19.628906 36.734375 C 19.570312 36.933594 19.378906 37.058594 19.175781 37.039062 Z M 8.671875 37.667969 L 8.292969 37.109375 L 8.832031 37.136719 Z M 7.589844 36.070312 L 8.097656 36.074219 L 7.929688 36.574219 Z M 6.953125 35.128906 L 7.441406 35.128906 L 7.253906 35.574219 Z M 6.398438 34.304688 L 6.832031 34.28125 L 6.636719 34.65625 Z M 7.976562 33.949219 L 7.679688 34.679688 L 7.460938 34.359375 L 7.769531 33.648438 Z M 7.714844 35.304688 L 8.019531 35.753906 L 7.527344 35.75 Z M 7.382812 34.8125 L 6.917969 34.8125 L 7.117188 34.421875 Z M 8.199219 36.785156 L 8.371094 36.273438 L 8.734375 36.8125 Z M 9.558594 37.464844 L 9.359375 37.167969 L 9.683594 36.480469 L 9.886719 36.78125 Z M 9.152344 36.859375 L 8.835938 36.390625 L 9.136719 35.671875 L 9.476562 36.171875 Z M 8.621094 36.070312 L 8.40625 35.757812 L 8.691406 35.011719 L 8.921875 35.351562 Z M 8.1875 35.429688 L 7.898438 35.003906 L 8.191406 34.273438 L 8.472656 34.6875 Z M 6.9375 33.414062 C 6.957031 33.328125 7.007812 33.253906 7.078125 33.207031 C 7.132812 33.171875 7.195312 33.152344 7.261719 33.152344 C 7.28125 33.152344 7.304688 33.15625 7.324219 33.160156 C 7.410156 33.175781 7.484375 33.226562 7.535156 33.296875 L 7.558594 33.332031 L 7.25 34.042969 L 6.988281 33.65625 C 6.9375 33.582031 6.921875 33.496094 6.9375 33.414062 Z M 6.316406 33.707031 C 6.359375 33.679688 6.410156 33.664062 6.460938 33.664062 C 6.480469 33.664062 6.496094 33.664062 6.515625 33.667969 C 6.585938 33.683594 6.644531 33.722656 6.683594 33.78125 L 6.808594 33.964844 L 6.207031 33.996094 C 6.175781 33.890625 6.214844 33.769531 6.316406 33.707031 Z M 9.402344 37.945312 C 9.390625 38.011719 9.347656 38.070312 9.289062 38.109375 C 9.230469 38.148438 9.160156 38.164062 9.089844 38.148438 C 9.019531 38.136719 8.957031 38.097656 8.917969 38.039062 L 8.902344 38.011719 L 9.101562 37.355469 L 9.363281 37.746094 C 9.402344 37.804688 9.417969 37.875 9.402344 37.945312 Z M 10.195312 37.40625 C 10.175781 37.488281 10.125 37.5625 10.054688 37.609375 C 9.984375 37.65625 9.902344 37.671875 9.824219 37.660156 L 10.09375 37.089844 L 10.144531 37.164062 C 10.195312 37.234375 10.210938 37.320312 10.195312 37.40625 Z M 11.550781 35.738281 C 11.246094 36.054688 10.824219 36.390625 10.265625 36.765625 L 8.113281 33.578125 C 8.757812 32.929688 9.011719 31.914062 9.222656 30.386719 C 9.296875 29.855469 9.328125 29.433594 9.355469 29.027344 C 9.402344 28.433594 9.445312 27.816406 9.632812 26.808594 C 9.84375 25.664062 10.613281 23.113281 10.867188 22.542969 C 10.960938 22.324219 11.179688 22.183594 11.421875 22.183594 C 11.753906 22.183594 12.027344 22.453125 12.027344 22.78125 L 12.027344 23.164062 C 11.898438 23.074219 11.746094 23.019531 11.578125 23.019531 C 11.222656 23.019531 10.917969 23.253906 10.828125 23.589844 C 10.582031 24.527344 10.003906 26.78125 9.933594 27.414062 C 9.847656 28.148438 9.867188 29.292969 9.867188 29.339844 C 9.867188 29.429688 9.941406 29.496094 10.027344 29.496094 C 10.027344 29.496094 10.03125 29.496094 10.03125 29.496094 C 10.121094 29.496094 10.191406 29.425781 10.1875 29.335938 C 10.1875 29.324219 10.171875 28.164062 10.253906 27.449219 C 10.324219 26.820312 10.949219 24.394531 11.140625 23.667969 C 11.191406 23.472656 11.371094 23.335938 11.578125 23.335938 C 11.824219 23.335938 12.027344 23.535156 12.027344 23.777344 L 12.027344 24.496094 C 11.949219 24.457031 11.863281 24.433594 11.769531 24.433594 C 11.496094 24.433594 11.257812 24.625 11.203125 24.886719 C 11.074219 25.523438 10.84375 26.683594 10.769531 27.3125 C 10.664062 28.167969 10.664062 30.042969 10.664062 30.121094 C 10.664062 30.210938 10.734375 30.28125 10.824219 30.28125 C 10.914062 30.28125 10.984375 30.210938 10.984375 30.121094 C 10.984375 30.101562 10.988281 28.1875 11.089844 27.351562 C 11.164062 26.734375 11.390625 25.582031 11.519531 24.949219 C 11.542969 24.835938 11.648438 24.75 11.769531 24.75 C 11.910156 24.75 12.027344 24.863281 12.027344 25 L 12.027344 34.570312 C 12.027344 35.007812 11.855469 35.421875 11.550781 35.738281 Z M 12.820312 35.738281 C 12.515625 35.421875 12.347656 35.007812 12.347656 34.570312 L 12.347656 25 C 12.347656 24.863281 12.460938 24.75 12.601562 24.75 C 12.722656 24.75 12.828125 24.835938 12.851562 24.953125 C 12.980469 25.582031 13.210938 26.734375 13.285156 27.351562 C 13.386719 28.1875 13.386719 30.105469 13.386719 30.121094 C 13.386719 30.210938 13.460938 30.28125 13.546875 30.28125 C 13.636719 30.28125 13.710938 30.210938 13.710938 30.121094 C 13.710938 30.042969 13.707031 28.167969 13.605469 27.3125 C 13.527344 26.683594 13.296875 25.523438 13.167969 24.890625 C 13.113281 24.625 12.875 24.433594 12.601562 24.433594 C 12.511719 24.433594 12.425781 24.457031 12.347656 24.496094 L 12.347656 23.777344 C 12.347656 23.535156 12.550781 23.335938 12.796875 23.335938 C 13 23.335938 13.179688 23.472656 13.230469 23.667969 C 13.421875 24.394531 14.050781 26.820312 14.121094 27.449219 C 14.203125 28.164062 14.183594 29.324219 14.183594 29.335938 C 14.183594 29.425781 14.253906 29.496094 14.34375 29.496094 C 14.433594 29.496094 14.503906 29.429688 14.507812 29.339844 C 14.507812 29.292969 14.523438 28.148438 14.441406 27.414062 C 14.371094 26.78125 13.789062 24.527344 13.542969 23.589844 C 13.457031 23.253906 13.148438 23.019531 12.796875 23.019531 C 12.628906 23.019531 12.472656 23.074219 12.347656 23.164062 L 12.347656 22.78125 C 12.347656 22.453125 12.617188 22.183594 12.953125 22.183594 C 13.191406 22.183594 13.410156 22.324219 13.507812 22.542969 C 13.757812 23.113281 14.53125 25.664062 14.742188 26.808594 C 14.929688 27.816406 14.972656 28.433594 15.015625 29.027344 C 15.046875 29.433594 15.078125 29.855469 15.152344 30.386719 C 15.371094 31.957031 15.632812 32.996094 16.320312 33.640625 C 16.5625 33.863281 17.273438 34.210938 18.496094 34.691406 L 17.394531 38.644531 C 15.527344 37.675781 13.710938 36.65625 12.820312 35.738281 Z M 17.71875 39.871094 C 17.636719 39.847656 17.566406 39.796875 17.523438 39.722656 C 17.480469 39.648438 17.472656 39.5625 17.496094 39.480469 L 18.902344 34.429688 C 18.941406 34.289062 19.070312 34.195312 19.210938 34.195312 C 19.238281 34.195312 19.269531 34.199219 19.296875 34.207031 C 19.46875 34.253906 19.570312 34.429688 19.523438 34.597656 L 19.488281 34.71875 L 18.816406 37.121094 L 18.113281 39.648438 C 18.066406 39.816406 17.890625 39.917969 17.71875 39.871094 Z M 18.773438 40.15625 C 18.695312 40.132812 18.628906 40.09375 18.578125 40.042969 C 18.859375 40 19.109375 39.796875 19.1875 39.507812 C 19.242188 39.320312 19.214844 39.121094 19.117188 38.949219 C 19.03125 38.800781 18.894531 38.6875 18.730469 38.628906 L 18.746094 38.574219 L 19.089844 37.347656 C 19.132812 37.355469 19.175781 37.359375 19.214844 37.359375 C 19.546875 37.359375 19.847656 37.144531 19.9375 36.820312 C 20.042969 36.449219 19.835938 36.074219 19.480469 35.941406 L 19.796875 34.800781 C 19.863281 34.566406 20.113281 34.429688 20.351562 34.492188 C 20.519531 34.539062 20.640625 34.675781 20.671875 34.835938 C 20.347656 34.839844 20.050781 35.050781 19.960938 35.375 C 19.867188 35.714844 20.03125 36.0625 20.332031 36.222656 L 19.957031 37.578125 C 19.582031 37.515625 19.214844 37.738281 19.113281 38.105469 C 19.011719 38.472656 19.214844 38.847656 19.566406 38.980469 L 19.324219 39.84375 C 19.257812 40.082031 19.011719 40.21875 18.773438 40.15625 Z M 18.773438 40.15625 " fill-opacity="1" fill-rule="nonzero"/></g><g clip-path="url(#b82d5c12dd)"><path fill="#004aad" d="M 26.59375 18.988281 Z M 26.527344 25.679688 Z M 31.421875 29.394531 L 31.492188 29.449219 L 31.433594 29.488281 Z M 28.949219 32.738281 L 28.96875 32.742188 L 28.976562 32.847656 L 28.96875 32.742188 Z M 28.976562 32.847656 Z M 37.59375 32.925781 C 37.648438 32.925781 37.703125 32.925781 37.757812 32.933594 C 37.703125 32.925781 37.648438 32.925781 37.59375 32.925781 C 37.535156 32.925781 37.480469 32.925781 37.421875 32.933594 C 37.480469 32.925781 37.535156 32.925781 37.59375 32.925781 Z M 35.910156 32.933594 C 35.921875 32.933594 35.941406 32.9375 35.964844 32.945312 C 35.941406 32.9375 35.921875 32.933594 35.910156 32.933594 C 35.894531 32.933594 35.882812 32.9375 35.878906 32.945312 C 35.882812 32.9375 35.894531 32.933594 35.910156 32.933594 Z M 35.757812 33.539062 Z M 31.8125 29.925781 L 35.375 33.835938 L 35.3125 33.910156 L 35.164062 33.757812 L 31.738281 30.003906 L 31.808594 29.929688 Z M 32.25 36.800781 C 32.257812 36.800781 32.261719 36.800781 32.265625 36.800781 C 32.261719 36.800781 32.257812 36.800781 32.25 36.800781 C 32.246094 36.800781 32.242188 36.800781 32.234375 36.800781 C 32.242188 36.800781 32.246094 36.800781 32.25 36.800781 Z M 27.355469 37.613281 Z M 40.039062 38.863281 Z M 40.546875 39.210938 C 40.546875 39.210938 40.542969 39.210938 40.542969 39.210938 Z M 40.597656 39.210938 C 40.597656 39.210938 40.597656 39.210938 40.59375 39.210938 Z M 26.605469 18.921875 C 26.445312 18.921875 26.191406 19.082031 25.847656 19.398438 C 25.691406 19.539062 25.597656 19.71875 25.570312 19.9375 C 25.53125 20.128906 25.523438 20.515625 25.550781 21.09375 C 25.558594 21.113281 25.566406 21.121094 25.574219 21.121094 C 25.585938 21.121094 25.601562 21.097656 25.617188 21.054688 C 25.632812 21.246094 25.671875 21.390625 25.730469 21.488281 C 25.941406 21.921875 26.085938 22.136719 26.167969 22.136719 C 26.175781 22.136719 26.179688 22.136719 26.1875 22.132812 L 26.257812 22.441406 L 25.738281 22.78125 C 25.683594 22.820312 25.644531 22.898438 25.613281 23.011719 C 25.554688 23.417969 25.582031 23.863281 25.691406 24.34375 L 25.621094 25.054688 C 25.375 24.875 25.15625 24.644531 24.960938 24.355469 L 24.992188 24.214844 C 24.972656 24.179688 24.921875 24.144531 24.84375 24.109375 C 24.839844 23.890625 24.808594 23.734375 24.753906 23.644531 C 24.710938 23.5625 24.597656 23.519531 24.417969 23.507812 L 24.101562 23.019531 L 23.585938 23.066406 C 23.582031 23.066406 23.582031 23.0625 23.578125 23.0625 C 23.550781 23.0625 23.539062 23.078125 23.542969 23.113281 L 23.726562 23.457031 C 23.613281 23.570312 23.566406 23.644531 23.59375 23.675781 C 23.597656 23.730469 23.664062 23.808594 23.785156 23.914062 L 23.726562 24.125 C 23.75 24.175781 23.789062 24.207031 23.839844 24.214844 C 23.832031 24.308594 23.84375 24.375 23.871094 24.40625 L 24.113281 24.6875 L 24.578125 24.777344 L 25.191406 25.867188 C 25.300781 26.027344 25.453125 26.1875 25.640625 26.34375 C 25.835938 26.5 25.988281 26.578125 26.09375 26.578125 C 26.121094 26.578125 26.148438 26.574219 26.167969 26.5625 C 26.457031 26.394531 26.597656 26.117188 26.589844 25.738281 L 26.835938 25.8125 C 26.882812 25.878906 26.9375 25.996094 26.996094 26.171875 C 27.183594 26.726562 27.273438 27.082031 27.265625 27.246094 C 27.300781 27.332031 27.335938 27.378906 27.375 27.390625 L 27.828125 28.8125 C 27.691406 29.285156 27.589844 30.214844 27.515625 31.609375 C 27.488281 32.296875 27.484375 32.722656 27.5 32.886719 L 27.683594 33.769531 L 27.589844 34.558594 C 27.621094 35.363281 27.625 35.882812 27.601562 36.113281 C 27.585938 36.410156 27.535156 36.746094 27.453125 37.125 C 27.441406 37.148438 27.457031 37.179688 27.503906 37.214844 L 27.351562 37.535156 C 27.320312 37.527344 27.292969 37.523438 27.269531 37.523438 C 27.234375 37.523438 27.21875 37.535156 27.222656 37.550781 C 26.945312 37.914062 26.738281 38.160156 26.59375 38.285156 C 26.453125 38.433594 26.253906 38.503906 25.992188 38.503906 C 25.964844 38.503906 25.933594 38.503906 25.902344 38.503906 C 25.839844 38.535156 25.804688 38.617188 25.789062 38.746094 C 25.78125 38.929688 25.816406 39.0625 25.902344 39.144531 C 26.367188 39.203125 26.683594 39.230469 26.859375 39.230469 C 26.859375 39.230469 26.863281 39.230469 26.867188 39.230469 C 26.875 39.230469 26.886719 39.230469 26.898438 39.230469 C 27.078125 39.230469 27.210938 39.210938 27.304688 39.175781 L 27.8125 38.863281 L 27.839844 39.210938 L 27.871094 39.226562 L 28.800781 39.210938 C 28.804688 39.210938 28.8125 39.210938 28.816406 39.210938 C 28.835938 39.210938 28.851562 39.199219 28.855469 39.171875 C 28.820312 38.910156 28.828125 38.539062 28.871094 38.058594 C 28.886719 37.996094 28.8125 37.859375 28.648438 37.65625 C 28.621094 37.601562 28.609375 37.511719 28.613281 37.382812 C 28.644531 36.632812 28.820312 35.753906 29.140625 34.75 L 29.054688 33.101562 C 29.265625 33.4375 29.664062 33.855469 30.246094 34.367188 L 30.632812 34.882812 L 31.570312 35.964844 L 32.195312 36.847656 L 32.289062 36.882812 L 32.589844 37.382812 C 32.53125 37.472656 32.519531 37.519531 32.558594 37.519531 C 32.941406 37.902344 33.152344 38.160156 33.195312 38.289062 C 33.253906 38.363281 33.214844 38.550781 33.082031 38.855469 C 33.082031 38.929688 33.121094 39.007812 33.203125 39.097656 C 33.296875 39.148438 33.386719 39.175781 33.472656 39.175781 C 33.757812 39.175781 34 38.894531 34.195312 38.339844 C 34.320312 38.171875 34.242188 37.824219 33.957031 37.300781 L 34.375 37.308594 L 34.492188 36.367188 L 33.519531 36.105469 L 33.078125 36.128906 L 32.933594 35.996094 C 32.8125 35.90625 32.457031 35.273438 31.867188 34.097656 C 30.996094 33.253906 30.582031 32.769531 30.625 32.644531 L 30.296875 29.730469 C 30.675781 29.207031 30.800781 28.703125 30.667969 28.214844 L 30.863281 28.679688 C 30.824219 28.886719 30.828125 29.042969 30.871094 29.144531 L 31.152344 29.5625 C 31.183594 29.644531 31.175781 29.773438 31.121094 29.945312 L 31.148438 29.9375 L 31.144531 29.964844 C 31.148438 29.964844 31.152344 29.964844 31.15625 29.964844 C 31.222656 29.964844 31.300781 29.992188 31.390625 30.046875 L 31.976562 30.65625 C 33.003906 31.878906 34.015625 33.019531 35.019531 34.082031 L 35.113281 34.203125 C 35.039062 34.359375 35.03125 34.5 35.082031 34.621094 C 35.121094 34.730469 35.195312 34.851562 35.308594 34.980469 L 37.976562 37.574219 L 38.882812 38.722656 C 38.886719 38.742188 38.894531 38.75 38.914062 38.75 C 38.929688 38.75 38.949219 38.742188 38.972656 38.730469 C 38.984375 38.839844 39.035156 38.929688 39.117188 38.996094 C 39.179688 39.058594 39.269531 39.085938 39.382812 39.085938 C 39.402344 39.085938 39.417969 39.085938 39.4375 39.085938 C 39.542969 39.078125 39.632812 39.015625 39.707031 38.894531 C 39.867188 38.914062 39.984375 38.925781 40.058594 38.925781 C 40.117188 38.925781 40.148438 38.917969 40.148438 38.90625 C 40.230469 39.148438 40.363281 39.269531 40.554688 39.269531 C 40.609375 39.269531 40.671875 39.257812 40.738281 39.238281 L 42.011719 37.976562 L 42.113281 37.976562 L 42.519531 37.511719 C 42.523438 37.480469 42.507812 37.464844 42.480469 37.464844 C 42.476562 37.464844 42.476562 37.464844 42.472656 37.464844 L 42.078125 37.390625 L 42.023438 37.242188 C 42.191406 37.09375 42.234375 36.976562 42.164062 36.890625 C 41.976562 36.585938 41.78125 36.332031 41.582031 36.128906 C 41.328125 35.84375 40.257812 34.832031 38.375 33.09375 C 38.128906 32.9375 37.867188 32.863281 37.585938 32.863281 C 37.242188 32.863281 36.875 32.976562 36.476562 33.207031 C 36.175781 32.976562 35.984375 32.863281 35.902344 32.863281 C 35.878906 32.863281 35.863281 32.871094 35.859375 32.886719 C 35.738281 32.917969 35.644531 33.015625 35.574219 33.179688 C 35.535156 33.269531 35.570312 33.390625 35.683594 33.542969 C 35.6875 33.554688 35.667969 33.582031 35.617188 33.625 L 32.167969 29.894531 L 32.171875 29.796875 L 31.914062 29.515625 C 31.96875 29.300781 31.960938 29.148438 31.890625 29.054688 C 31.519531 28.722656 31.332031 28.519531 31.328125 28.4375 C 31.265625 28.308594 31.1875 28.042969 31.09375 27.636719 C 31.71875 27.132812 32.039062 26.710938 32.058594 26.375 C 32.078125 26.238281 32.050781 26.058594 31.96875 25.832031 L 31.394531 24.640625 C 30.933594 24.050781 30.496094 23.644531 30.085938 23.421875 C 30.277344 23.289062 30.316406 23.164062 30.199219 23.054688 C 30.148438 23.03125 30.109375 23.015625 30.078125 23.015625 C 30.054688 23.015625 30.035156 23.023438 30.019531 23.035156 L 29.570312 23.382812 C 29.109375 22.808594 28.808594 22.476562 28.667969 22.386719 L 27.472656 21.875 C 27.433594 21.851562 27.425781 21.667969 27.441406 21.324219 C 27.761719 21.273438 27.910156 20.777344 27.890625 19.835938 C 27.847656 19.664062 27.746094 19.5 27.582031 19.351562 C 27.519531 19.292969 27.433594 19.265625 27.320312 19.265625 C 27.300781 19.265625 27.285156 19.265625 27.265625 19.265625 C 27.089844 19.050781 26.886719 18.9375 26.660156 18.925781 L 26.644531 18.925781 C 26.632812 18.925781 26.621094 18.921875 26.605469 18.921875 Z M 26.605469 18.921875 " fill-opacity="1" fill-rule="nonzero"/></g></svg>